<svg width="240" height="175" viewBox="0 0 240 175" fill="none" xmlns="http://www.w3.org/2000/svg">
<path d="M34.0017 1H130.158V137.4L82.0799 85.8677L34.0017 137.4V1Z" fill="white"/>
<line x1="126.083" y1="3.2829" x2="205.473" y2="136.408" stroke="white" stroke-width="9"/>
<path d="M205.998 138.868L204.998 1.86774" stroke="white" stroke-width="9"/>
<path d="M39.0017 5H126.002V128L82.5017 81.5305L39.0017 128V5Z" fill="#456CCE"/>
<path d="M6.96023 164.231C6.9072 163.598 6.64867 163.086 6.18466 162.695C5.72396 162.304 5.12737 162.109 4.39489 162.109C3.90104 162.109 3.46188 162.2 3.07741 162.382C2.69295 162.564 2.39134 162.813 2.17259 163.128C1.95384 163.443 1.84446 163.804 1.84446 164.211C1.84446 164.473 1.89418 164.71 1.99361 164.922C2.09635 165.131 2.24053 165.318 2.42614 165.484C2.61174 165.647 2.83215 165.789 3.08736 165.912C3.34257 166.034 3.62429 166.142 3.93253 166.235L5.04616 166.563C5.42732 166.679 5.77865 166.813 6.10014 166.966C6.42495 167.118 6.70668 167.301 6.94531 167.513C7.18726 167.721 7.37453 167.967 7.5071 168.248C7.64299 168.53 7.71094 168.855 7.71094 169.223C7.71094 169.76 7.57173 170.24 7.29332 170.665C7.01823 171.089 6.62547 171.424 6.11506 171.669C5.60795 171.911 5.00971 172.032 4.32031 172.032C3.66406 172.032 3.09233 171.921 2.60511 171.699C2.12121 171.477 1.7384 171.168 1.45668 170.774C1.17495 170.376 1.01586 169.919 0.979403 169.402H1.61577C1.64891 169.823 1.78314 170.187 2.01847 170.496C2.2571 170.801 2.57363 171.036 2.96804 171.202C3.36245 171.367 3.81321 171.45 4.32031 171.45C4.86719 171.45 5.34943 171.357 5.76705 171.172C6.18466 170.983 6.51113 170.721 6.74645 170.386C6.98177 170.051 7.09943 169.662 7.09943 169.218C7.09943 168.86 7.01492 168.553 6.84588 168.298C6.67685 168.043 6.42661 167.823 6.09517 167.637C5.76705 167.451 5.35938 167.286 4.87216 167.14L3.68395 166.782C2.88849 166.54 2.2803 166.21 1.85938 165.792C1.44176 165.375 1.23295 164.854 1.23295 164.231C1.23295 163.708 1.37216 163.244 1.65057 162.839C1.92898 162.432 2.30682 162.112 2.78409 161.88C3.26468 161.648 3.80658 161.532 4.4098 161.532C5.01634 161.532 5.55161 161.649 6.01562 161.885C6.47964 162.117 6.84754 162.437 7.11932 162.844C7.3911 163.249 7.5419 163.711 7.57173 164.231H6.96023ZM26.9941 171.868H26.3379L30.0119 161.686H30.7278L34.4018 171.868H33.7456L30.3947 162.486H30.345L26.9941 171.868ZM27.9238 168.035H32.8159V168.611H27.9238V168.035ZM52.1712 161.686L55.5121 171.067H55.5817L58.9226 161.686H59.5788L55.9048 171.868H55.1889L51.5149 161.686H52.1712ZM78.698 171.868V161.686H84.3656V162.263H79.3194V166.484H84.0623V167.06H79.3194V171.291H84.4849V171.868H78.698ZM133.1 161.686V171.868H132.494L126.001 162.814H125.941V171.868H125.32V161.686H125.931L132.424 170.749H132.484V161.686H133.1ZM161.357 166.777C161.357 167.827 161.175 168.746 160.81 169.531C160.446 170.313 159.939 170.921 159.289 171.356C158.643 171.79 157.897 172.007 157.052 172.007C156.203 172.007 155.454 171.79 154.805 171.356C154.158 170.918 153.653 170.308 153.288 169.526C152.924 168.741 152.741 167.824 152.741 166.777C152.741 165.726 152.924 164.81 153.288 164.028C153.656 163.245 154.163 162.637 154.81 162.203C155.456 161.765 156.203 161.547 157.052 161.547C157.897 161.547 158.643 161.764 159.289 162.198C159.939 162.632 160.446 163.242 160.81 164.028C161.175 164.81 161.357 165.726 161.357 166.777ZM160.751 166.777C160.751 165.832 160.591 165.014 160.273 164.321C159.958 163.628 159.523 163.093 158.966 162.715C158.409 162.334 157.771 162.143 157.052 162.143C156.332 162.143 155.694 162.332 155.138 162.71C154.581 163.085 154.143 163.62 153.825 164.316C153.51 165.009 153.353 165.829 153.353 166.777C153.353 167.715 153.509 168.532 153.82 169.228C154.135 169.921 154.571 170.457 155.128 170.839C155.685 171.22 156.326 171.41 157.052 171.41C157.771 171.41 158.409 171.221 158.966 170.844C159.523 170.462 159.958 169.926 160.273 169.233C160.591 168.54 160.751 167.721 160.751 166.777ZM179.906 162.263V161.686H187.04V162.263H183.784V171.868H183.162V162.263H179.906ZM206.525 171.868V161.686H212.192V162.263H207.146V166.484H211.889V167.06H207.146V171.291H212.311V171.868H206.525ZM237.477 164.231C237.424 163.598 237.166 163.086 236.702 162.695C236.241 162.304 235.644 162.109 234.912 162.109C234.418 162.109 233.979 162.2 233.595 162.382C233.21 162.564 232.908 162.813 232.69 163.128C232.471 163.443 232.362 163.804 232.362 164.211C232.362 164.473 232.411 164.71 232.511 164.922C232.613 165.131 232.758 165.318 232.943 165.484C233.129 165.647 233.349 165.789 233.604 165.912C233.86 166.034 234.141 166.142 234.45 166.235L235.563 166.563C235.944 166.679 236.296 166.813 236.617 166.966C236.942 167.118 237.224 167.301 237.462 167.513C237.704 167.721 237.892 167.967 238.024 168.248C238.16 168.53 238.228 168.855 238.228 169.223C238.228 169.76 238.089 170.24 237.81 170.665C237.535 171.089 237.143 171.424 236.632 171.669C236.125 171.911 235.527 172.032 234.837 172.032C234.181 172.032 233.609 171.921 233.122 171.699C232.638 171.477 232.256 171.168 231.974 170.774C231.692 170.376 231.533 169.919 231.497 169.402H232.133C232.166 169.823 232.3 170.187 232.536 170.496C232.774 170.801 233.091 171.036 233.485 171.202C233.88 171.367 234.33 171.45 234.837 171.45C235.384 171.45 235.867 171.357 236.284 171.172C236.702 170.983 237.028 170.721 237.264 170.386C237.499 170.051 237.617 169.662 237.617 169.218C237.617 168.86 237.532 168.553 237.363 168.298C237.194 168.043 236.944 167.823 236.612 167.637C236.284 167.451 235.876 167.286 235.389 167.14L234.201 166.782C233.406 166.54 232.797 166.21 232.376 165.792C231.959 165.375 231.75 164.854 231.75 164.231C231.75 163.708 231.889 163.244 232.168 162.839C232.446 162.432 232.824 162.112 233.301 161.88C233.782 161.648 234.324 161.532 234.927 161.532C235.533 161.532 236.069 161.649 236.533 161.885C236.997 162.117 237.365 162.437 237.636 162.844C237.908 163.249 238.059 163.711 238.089 164.231H237.477Z" fill="white"/>
</svg>
